# Blender v2.77 (sub 0) OBJ File: ''
# www.blender.org
mtllib tree.mtl
o Trunk_Cylinder.001
v -0.007052 0.553230 -0.006806
v 0.327038 0.877204 0.235921
v -0.137480 0.832978 0.394616
v -0.449768 0.732961 -0.006806
v -0.133167 0.900631 -0.394955
v 0.340449 0.796851 -0.259278
v 0.131583 1.352998 0.419877
v -0.323952 1.077035 0.223431
v -0.363367 1.313182 -0.265681
v 0.128158 1.299260 -0.422946
v 0.403476 1.168252 -0.006806
v -0.007052 1.574035 -0.006806
v -0.083488 0.684260 0.228442
v 0.195732 0.613532 0.140523
v 0.115330 0.832710 0.369838
v 0.390394 0.823932 -0.006806
v 0.199862 0.504090 -0.157137
v -0.256819 0.632584 -0.006806
v -0.336181 0.765854 0.232318
v -0.086963 0.443160 -0.252751
v -0.337236 0.757777 -0.246698
v 0.123321 0.672555 -0.408047
v 0.431897 1.028616 0.135815
v 0.448585 1.028616 -0.154850
v -0.007052 1.028616 0.474923
v 0.263267 1.028616 0.365254
v -0.450047 1.028616 0.137129
v -0.288048 1.028616 0.379951
v -0.297052 1.028616 -0.405957
v -0.446490 1.028616 -0.149586
v 0.226525 1.028616 -0.328294
v -0.007052 1.028616 -0.483621
v 0.304372 1.155855 0.219456
v -0.126509 1.165899 0.360835
v -0.398302 1.194927 -0.006806
v -0.135447 1.345033 -0.401958
v 0.326824 1.327719 -0.249380
v 0.070650 1.460852 0.232341
v 0.244683 1.466833 -0.006806
v -0.212969 1.526711 0.142799
v -0.207555 1.383253 -0.152479
v 0.072409 1.582882 -0.251368
v -0.000000 -0.415178 -0.042228
v -0.000000 0.624109 -0.033494
v 0.020413 -0.411794 -0.030035
v 0.019687 0.624109 -0.027097
v 0.038352 -0.413646 -0.010350
v 0.031855 0.624109 -0.010350
v 0.034277 -0.407228 0.010350
v 0.031855 0.624109 0.010350
v 0.019687 -0.406403 0.027097
v 0.019687 0.624109 0.027097
v -0.000000 -0.410017 0.033494
v -0.000000 0.624109 0.033494
v -0.019688 -0.410017 0.027097
v -0.019687 0.624109 0.027097
v -0.036664 -0.410017 0.010350
v -0.031855 0.624109 0.010350
v -0.039559 -0.415235 -0.010350
v -0.031855 0.624109 -0.010350
v -0.021269 -0.412229 -0.028180
v -0.019687 0.624109 -0.027097
v -0.000000 -0.454694 -0.054595
v 0.026166 -0.454406 -0.045222
v 0.052594 -0.460776 -0.013596
v 0.042282 -0.460573 0.013596
v 0.025862 -0.462096 0.035595
v -0.000000 -0.457478 0.043998
v -0.026129 -0.457478 0.035595
v -0.049841 -0.457478 0.013596
v -0.044575 -0.457478 -0.013596
v -0.025862 -0.455236 -0.035924
v 0.014532 0.305816 -0.009775
v 0.160539 0.596089 0.020650
v 0.020108 0.300258 -0.009687
v 0.166116 0.590531 0.020739
v 0.024299 0.295253 -0.005626
v 0.170307 0.585526 0.024800
v 0.025505 0.292712 0.000857
v 0.171513 0.582986 0.031282
v 0.023265 0.293607 0.007285
v 0.169273 0.583881 0.037710
v 0.018434 0.297596 0.011203
v 0.164442 0.587869 0.041628
v 0.012858 0.303154 0.011115
v 0.158866 0.593427 0.041540
v 0.008666 0.308159 0.007054
v 0.154674 0.598432 0.037479
v 0.007460 0.310699 0.000571
v 0.153468 0.600973 0.030996
v 0.009701 0.309804 -0.005857
v 0.155709 0.600078 0.024569
vt 0.7724 0.3160
vt 0.7685 0.4866
vt 0.6388 0.3637
vt 0.7659 0.5972
vt 0.8987 0.5393
vt 0.6928 0.1759
vt 0.8611 0.1764
vt 0.9080 0.3742
vt 0.8456 0.6177
vt 0.5443 0.3975
vt 0.6363 0.5299
vt 0.5485 0.5018
vt 0.6313 0.0676
vt 0.5564 0.2235
vt 0.5642 0.1232
vt 0.9121 0.0961
vt 0.7784 0.0385
vt 0.8649 0.0000
vt 0.3716 0.8982
vt 0.3588 0.7192
vt 0.4214 0.8083
vt 0.6854 0.6113
vt 0.5031 0.3075
vt 0.6452 0.6911
vt 0.6993 0.6177
vt 0.6993 0.7587
vt 0.9933 0.1329
vt 0.4131 1.0000
vt 0.3810 0.5681
vt 0.2328 0.5820
vt 0.3161 0.4592
vt 0.4440 0.2390
vt 0.4404 0.4027
vt 0.3700 0.2676
vt 0.2351 0.0203
vt 0.3642 0.1054
vt 0.2344 0.1514
vt 0.0000 0.2265
vt 0.0973 0.0904
vt 0.0961 0.2652
vt 0.0971 0.5452
vt 0.0125 0.4054
vt 0.1497 0.4582
vt 0.2335 0.3202
vt 0.0151 0.5102
vt 0.4736 0.8953
vt 0.4736 0.7162
vt 0.0178 0.1277
vt 0.1497 0.0000
vt 0.3157 0.0214
vt 0.4469 0.1350
vt 0.5031 0.3217
vt 0.4525 0.5141
vt 0.3127 0.6182
vt 0.1525 0.6182
vt 0.6452 0.6177
vt 0.6452 0.8086
vt 0.5926 0.7089
vt 0.4331 0.6177
vt 1.0000 0.2348
vt 0.5926 0.6177
vt 0.5926 0.8127
vt 0.5344 0.7179
vt 0.6984 0.0148
vt 0.5344 0.6177
vt 0.5344 0.8098
vt 0.4736 0.7158
vt 0.9858 0.5152
vt 1.0000 0.4141
vt 0.1670 0.6182
vt 0.1772 0.6788
vt 0.1639 0.6788
vt 0.1892 0.6183
vt 0.1919 0.6788
vt 0.1347 0.6184
vt 0.1406 0.6782
vt 0.1318 0.6788
vt 0.1417 0.6182
vt 0.1528 0.6781
vt 0.1639 0.6182
vt 0.1639 0.6784
vt 0.2521 0.6784
vt 0.2409 0.6182
vt 0.2522 0.6182
vt 0.2300 0.6784
vt 0.2278 0.6182
vt 0.1318 0.6205
vt 0.1234 0.6782
vt 0.1248 0.6182
vt 0.2278 0.6339
vt 0.1988 0.6594
vt 0.1919 0.6339
vt 0.1104 0.6190
vt 0.1015 0.6799
vt 0.0963 0.6200
vt 0.0448 0.6650
vt 0.0482 0.6458
vt 0.0482 0.6656
vt 0.0706 0.6182
vt 0.0963 0.6358
vt 0.0963 0.6556
vt 0.0406 0.6821
vt 0.0361 0.6746
vt 0.0224 0.6832
vt 0.0227 0.6759
vt 0.0081 0.6762
vt 0.0119 0.6706
vt 0.0000 0.6605
vt 0.0057 0.6587
vt 0.0009 0.6418
vt 0.0055 0.6436
vt 0.0393 0.6311
vt 0.0291 0.6182
vt 0.0438 0.6247
vt 0.0112 0.6310
vt 0.0063 0.6231
vt 0.0261 0.6286
vt 0.0434 0.6477
vt 0.2644 0.7140
vt 0.2652 0.6182
vt 0.2652 0.7110
vt 0.6993 0.7244
vt 0.7084 0.6194
vt 0.7061 0.7210
vt 0.7218 0.6177
vt 0.7195 0.7193
vt 0.7343 0.7200
vt 0.7366 0.6183
vt 0.7448 0.7226
vt 0.2652 0.6182
vt 0.2659 0.7172
vt 0.2652 0.7141
vt 0.2522 0.6252
vt 0.2545 0.7304
vt 0.2527 0.7270
vt 0.2540 0.6286
vt 0.2580 0.7320
vt 0.2527 0.6215
vt 0.2554 0.6188
vt 0.2627 0.6198
vt 0.2612 0.6296
vt 0.2617 0.7314
vt 0.2639 0.6269
vt 0.2644 0.7287
vt 0.7471 0.7264
vt 0.7015 0.7281
vt 0.1781 0.6186
vt 0.1528 0.6182
vt 0.2409 0.6784
vt 0.1316 0.6799
vt 0.1988 0.6225
vt 0.2098 0.6182
vt 0.2209 0.6225
vt 0.2278 0.6480
vt 0.2209 0.6594
vt 0.2098 0.6638
vt 0.1919 0.6480
vt 0.1119 0.6782
vt 0.0919 0.6766
vt 0.0773 0.6832
vt 0.0544 0.6783
vt 0.0490 0.6596
vt 0.0482 0.6409
vt 0.0563 0.6252
vt 0.0888 0.6193
vt 0.2644 0.6211
vt 0.7015 0.6227
vt 0.7471 0.6210
vt 0.2659 0.6213
vt 0.2574 0.6302
vt 0.2644 0.6232
vt 0.2592 0.6182
vt 0.7121 0.7308
vt 0.7402 0.7297
vt 0.7269 0.7314
vn -0.0765 -0.8814 0.4661
vn 0.7966 -0.5126 0.3204
vn -0.2779 -0.8748 0.3969
vn -0.2681 -0.8439 0.4648
vn 0.0651 -0.9185 0.3899
vn 0.8651 -0.3928 0.3120
vn 0.0877 -0.4278 0.8996
vn -0.8700 -0.2165 0.4430
vn -0.2958 -0.4512 -0.8420
vn 0.5551 0.0253 -0.8314
vn 0.7948 -0.1642 0.5842
vn -0.3154 -0.1728 0.9331
vn -0.9999 0.0051 -0.0124
vn -0.2390 -0.3827 -0.8924
vn 0.6141 0.0677 -0.7863
vn 0.7924 0.6034 0.0896
vn -0.6306 0.2851 0.7218
vn -0.5564 0.7816 0.2820
vn 0.0225 0.5207 -0.8534
vn 0.8825 0.4693 0.0297
vn 0.3869 0.9084 0.1586
vn 0.6994 0.6961 -0.1624
vn 0.5212 0.5144 -0.6810
vn -0.6113 0.7728 -0.1707
vn -0.6215 0.7274 -0.2911
vn -0.2628 0.9395 -0.2199
vn -0.4676 0.7917 -0.3932
vn -0.7751 0.5626 -0.2876
vn -0.8583 0.2880 0.4246
vn 0.0840 0.9110 0.4038
vn -0.1600 0.4822 0.8613
vn -0.5713 0.6174 0.5407
vn 0.3744 0.8793 0.2945
vn 0.6906 0.5075 0.5153
vn 0.8162 0.4341 0.3813
vn 0.9308 0.3610 -0.0568
vn 0.6156 0.0015 -0.7881
vn 0.6596 -0.0230 -0.7512
vn -0.0364 0.2359 -0.9711
vn -0.2560 0.1428 -0.9561
vn -0.5213 0.2765 -0.8073
vn -0.9601 0.2797 -0.0018
vn -0.9577 0.2877 -0.0119
vn -0.5898 0.6255 0.5108
vn -0.5793 0.7317 0.3592
vn -0.2854 0.4534 0.8444
vn -0.4292 0.3264 0.8422
vn 0.8435 0.2636 0.4679
vn 0.7434 0.3859 0.5463
vn 0.7666 0.5285 0.3647
vn 0.5515 -0.0896 -0.8293
vn 0.5535 0.0260 -0.8324
vn -0.3188 -0.3071 -0.8967
vn -0.8630 0.0469 -0.5030
vn -0.8520 -0.1656 -0.4966
vn -0.8791 -0.1994 -0.4330
vn -0.5386 0.7621 0.3593
vn -0.8215 -0.1574 0.5481
vn -0.5219 -0.3432 0.7809
vn 0.3759 -0.0034 0.9266
vn 0.3636 -0.2536 0.8963
vn 0.5488 -0.3972 0.7356
vn 0.9658 0.2532 0.0555
vn 0.9703 -0.2356 0.0557
vn 0.9200 -0.3649 -0.1429
vn 0.6654 -0.5098 -0.5453
vn 0.3516 -0.7240 -0.5934
vn -0.3218 -0.3105 -0.8944
vn -0.4084 -0.3083 -0.8592
vn -0.7817 -0.6206 -0.0619
vn -0.4410 -0.8478 -0.2946
vn -0.4368 -0.8396 0.3230
vn -0.2766 -0.8755 0.3961
vn -0.2364 -0.7610 0.6042
vn 0.8770 -0.4643 -0.1237
vn 0.7883 -0.5739 0.2219
vn 0.0281 -0.9381 0.3453
vn 0.0656 -0.7329 0.6772
vn 0.0383 -0.7156 0.6974
vn 0.5338 -0.5099 0.6745
vn 0.5119 0.0072 -0.8590
vn 0.7393 0.0046 -0.6733
vn 0.9815 0.0061 0.1914
vn 0.7541 0.0018 0.6568
vn 0.3090 0.0000 0.9511
vn -0.3090 0.0000 0.9511
vn -0.7023 0.0033 0.7119
vn -0.9906 0.0073 0.1367
vn 0.0000 1.0000 0.0000
vn -0.6985 0.0052 -0.7156
vn -0.5504 0.0070 -0.8349
vn -0.7658 0.1392 -0.6279
vn 0.0824 -0.9961 -0.0309
vn -0.9603 0.2711 0.0660
vn -0.6855 0.2174 0.6949
vn -0.3024 0.2060 0.9307
vn 0.2751 0.1748 0.9454
vn 0.7490 0.1517 0.6450
vn 0.3207 0.2829 -0.9039
vn 0.9059 0.2502 0.3417
vn 0.7154 0.3183 -0.6220
vn -0.5195 0.2048 -0.8296
vn 0.0797 0.0642 -0.9948
vn 0.5536 -0.1936 -0.8100
vn 0.8603 -0.3995 -0.3166
vn 0.8219 -0.4500 0.3491
vn 0.4337 -0.3069 0.8472
vn -0.0797 -0.0642 0.9948
vn -0.5536 0.1936 0.8100
vn -0.8603 0.3996 0.3166
vn 0.6973 0.7019 0.1453
vn -0.8219 0.4500 -0.3491
vn -0.4337 0.3069 -0.8472
vn -0.6973 -0.7019 -0.1453
vn 0.3090 0.0029 -0.9511
vn 0.8090 0.0022 -0.5878
vn 1.0000 0.0023 0.0000
vn 0.8090 0.0000 0.5878
vn -0.8090 0.0000 0.5878
vn -1.0000 0.0047 0.0000
vn -0.8090 0.0018 -0.5878
vn -0.3090 0.0015 -0.9511
vn -0.7007 0.1982 -0.6854
vn 0.0143 -0.9999 -0.0092
vn -0.1692 -0.9839 -0.0568
vn -0.0181 -0.9964 -0.0825
vn 0.0101 -0.9995 -0.0313
vn 0.0000 -1.0000 -0.0000
vn -0.0026 -0.9946 -0.1036
vn -0.1674 -0.9855 0.0265
vn -0.9734 0.1301 -0.1885
vn -0.6615 0.2324 0.7130
vn -0.2995 0.2074 0.9313
vn 0.3352 0.2036 0.9199
vn 0.7827 0.1778 0.5965
vn 0.4357 0.3538 -0.8276
vn 0.9773 0.1554 0.1442
vn 0.7647 0.2713 -0.5844
vn -0.5708 0.2452 -0.7836
vn 0.8603 -0.3996 -0.3166
vn -0.8603 0.3995 0.3166
usemtl None
s off
f 1/1/1 14/2/1 13/3/1
f 2/4/2 14/2/2 16/5/2
f 1/1/3 13/3/3 18/6/3
f 1/1/4 18/6/4 20/7/4
f 1/1/5 20/7/5 17/8/5
f 2/4/6 16/5/6 23/9/6
f 3/10/7 15/11/7 25/12/7
f 4/13/8 19/14/8 27/15/8
f 5/16/9 21/17/9 29/18/9
f 6/19/10 22/20/10 31/21/10
f 2/4/11 23/9/11 26/22/11
f 3/10/12 25/12/12 28/23/12
f 4/24/13 27/25/13 30/26/13
f 5/16/14 29/18/14 32/27/14
f 6/19/15 31/21/15 24/28/15
f 7/29/16 33/30/16 38/31/16
f 8/32/17 34/33/17 40/34/17
f 9/35/18 35/36/18 41/37/18
f 10/38/19 36/39/19 42/40/19
f 11/41/20 37/42/20 39/43/20
f 39/43/21 42/40/21 12/44/21
f 39/43/22 37/42/22 42/40/22
f 37/42/23 10/38/23 42/40/23
f 42/40/24 41/37/24 12/44/24
f 42/40/25 36/39/25 41/37/25
f 36/39/26 9/35/26 41/37/26
f 41/37/27 40/34/27 12/44/27
f 41/37/28 35/36/28 40/34/28
f 35/36/29 8/32/29 40/34/29
f 40/34/30 38/31/30 12/44/30
f 40/34/31 34/33/31 38/31/31
f 34/33/32 7/29/32 38/31/32
f 38/31/33 39/43/33 12/44/33
f 38/31/34 33/30/34 39/43/34
f 33/30/35 11/41/35 39/43/35
f 24/45/36 37/42/36 11/41/36
f 24/28/37 31/21/37 37/46/37
f 31/21/38 10/47/38 37/46/38
f 32/48/39 36/39/39 10/38/39
f 32/48/40 29/49/40 36/39/40
f 29/49/41 9/35/41 36/39/41
f 30/50/42 35/36/42 9/35/42
f 30/50/43 27/51/43 35/36/43
f 27/51/44 8/32/44 35/36/44
f 28/52/45 34/33/45 8/32/45
f 28/52/46 25/53/46 34/33/46
f 25/53/47 7/29/47 34/33/47
f 26/54/48 33/30/48 7/29/48
f 26/54/49 23/55/49 33/30/49
f 23/55/50 11/41/50 33/30/50
f 31/56/51 32/57/51 10/58/51
f 31/21/52 22/20/52 32/59/52
f 22/60/53 5/16/53 32/27/53
f 29/61/54 30/62/54 9/63/54
f 29/18/55 21/17/55 30/64/55
f 21/17/56 4/13/56 30/64/56
f 27/51/57 28/52/57 8/32/57
f 27/15/58 19/14/58 28/23/58
f 19/14/59 3/10/59 28/23/59
f 25/65/60 26/66/60 7/67/60
f 25/12/61 15/11/61 26/22/61
f 15/11/62 2/4/62 26/22/62
f 23/55/63 24/45/63 11/41/63
f 23/9/64 16/5/64 24/68/64
f 16/5/65 6/69/65 24/68/65
f 17/8/66 22/60/66 6/69/66
f 17/8/67 20/7/67 22/60/67
f 20/7/68 5/16/68 22/60/68
f 20/7/69 21/17/69 5/16/69
f 20/7/70 18/6/70 21/17/70
f 18/6/71 4/13/71 21/17/71
f 18/6/72 19/14/72 4/13/72
f 18/6/73 13/3/73 19/14/73
f 13/3/74 3/10/74 19/14/74
f 16/5/75 17/8/75 6/69/75
f 16/5/76 14/2/76 17/8/76
f 14/2/77 1/1/77 17/8/77
f 13/3/78 15/11/78 3/10/78
f 13/3/79 14/2/79 15/11/79
f 14/2/80 2/4/80 15/11/80
f 44/70/81 45/71/81 43/72/81
f 45/71/82 48/73/82 47/74/82
f 48/75/83 49/76/83 47/77/83
f 50/78/84 51/79/84 49/76/84
f 51/79/85 54/80/85 53/81/85
f 54/82/86 55/83/86 53/84/86
f 55/83/87 58/85/87 57/86/87
f 57/87/88 60/88/88 59/89/88
f 60/90/89 52/91/89 48/92/89
f 60/88/90 61/93/90 59/89/90
f 61/93/91 44/94/91 43/95/91
f 59/96/92 72/97/92 71/98/92
f 69/99/93 71/100/93 72/101/93
f 59/96/94 70/102/94 57/103/94
f 57/103/95 69/104/95 55/105/95
f 55/105/96 68/106/96 53/107/96
f 53/107/97 67/108/97 51/109/97
f 51/109/98 66/110/98 49/111/98
f 43/112/99 64/113/99 63/114/99
f 47/115/100 66/110/100 65/116/100
f 47/115/101 64/113/101 45/117/101
f 43/112/102 72/97/102 61/118/102
f 73/119/103 76/120/103 75/121/103
f 75/122/104 78/123/104 77/124/104
f 77/124/105 80/125/105 79/126/105
f 80/125/106 81/127/106 79/126/106
f 82/128/107 83/129/107 81/127/107
f 84/130/108 85/131/108 83/132/108
f 86/133/109 87/134/109 85/135/109
f 88/136/110 89/137/110 87/134/110
f 84/138/111 82/139/111 78/140/111
f 89/137/112 92/141/112 91/142/112
f 91/142/113 74/143/113 73/144/113
f 85/145/114 73/146/114 75/122/114
f 44/70/115 46/147/115 45/71/115
f 45/71/116 46/147/116 48/73/116
f 48/75/117 50/78/117 49/76/117
f 50/78/118 52/148/118 51/79/118
f 51/79/85 52/148/85 54/80/85
f 54/82/86 56/149/86 55/83/86
f 55/83/119 56/149/119 58/85/119
f 57/87/120 58/150/120 60/88/120
f 48/92/89 46/151/89 44/152/89
f 44/152/89 62/153/89 60/90/89
f 60/90/89 58/154/89 56/155/89
f 56/155/89 54/156/89 52/91/89
f 52/91/89 50/157/89 48/92/89
f 48/92/89 44/152/89 60/90/89
f 60/90/89 56/155/89 52/91/89
f 60/88/121 62/158/121 61/93/121
f 61/93/122 62/158/122 44/94/122
f 59/96/123 61/118/123 72/97/123
f 72/101/124 63/159/124 64/160/124
f 64/160/125 65/161/125 66/162/125
f 66/162/126 67/163/126 72/101/126
f 68/164/127 69/99/127 72/101/127
f 70/165/128 71/100/128 69/99/128
f 72/101/129 64/160/129 66/162/129
f 67/163/130 68/164/130 72/101/130
f 59/96/131 71/98/131 70/102/131
f 57/103/132 70/102/132 69/104/132
f 55/105/133 69/104/133 68/106/133
f 53/107/134 68/106/134 67/108/134
f 51/109/135 67/108/135 66/110/135
f 43/112/136 45/117/136 64/113/136
f 47/115/137 49/111/137 66/110/137
f 47/115/138 65/116/138 64/113/138
f 43/112/139 63/114/139 72/97/139
f 73/119/103 74/166/103 76/120/103
f 75/122/104 76/167/104 78/123/104
f 77/124/140 78/123/140 80/125/140
f 80/125/106 82/128/106 81/127/106
f 82/128/107 84/168/107 83/129/107
f 84/130/108 86/169/108 85/131/108
f 86/133/109 88/136/109 87/134/109
f 88/136/141 90/170/141 89/137/141
f 78/140/111 76/171/111 84/138/111
f 74/143/111 92/141/111 88/136/111
f 90/170/111 88/136/111 92/141/111
f 86/133/111 84/138/111 76/171/111
f 82/139/111 80/172/111 78/140/111
f 76/171/111 74/143/111 86/133/111
f 88/136/111 86/133/111 74/143/111
f 89/137/112 90/170/112 92/141/112
f 91/142/113 92/141/113 74/143/113
f 91/173/114 73/146/114 87/174/114
f 75/122/114 77/124/114 83/129/114
f 79/126/114 81/127/114 77/124/114
f 83/129/114 85/145/114 75/122/114
f 87/174/114 89/175/114 91/173/114
f 73/146/114 85/145/114 87/174/114
f 81/127/114 83/129/114 77/124/114
