# Blender v2.75 (sub 0) OBJ File: ''
# www.blender.org
o Icosphere
v 0.162273 -1.373750 -0.364329
v 1.180555 -0.591252 0.375488
v -0.318574 -0.174384 1.328097
v -1.536601 -0.392696 -0.364329
v -0.226669 -0.686092 -1.561388
v 1.180555 -0.686847 -1.104146
v 0.551214 0.879014 1.328097
v -1.337190 1.055987 0.375488
v -0.856010 0.683044 -1.104146
v 0.551214 0.571835 -1.561388
v 1.420936 0.571830 -0.364329
v 0.162273 1.425027 -0.364329
v -0.066340 -0.998977 0.344725
v 0.760800 -1.180125 0.070521
v 0.532190 -0.472121 1.182646
v 1.359330 -0.793056 -0.364329
v 0.760800 -1.251374 -0.799179
v -0.582390 -1.020943 -0.364329
v -1.203222 -0.324362 0.344727
v -0.066340 -1.194968 -1.067937
v -0.811009 -0.720070 -1.067940
v 0.532190 -0.797340 -1.502795
v 1.500630 -0.053225 0.070523
v 1.500630 -0.057506 -0.799181
v 0.134078 0.366712 1.971164
v 0.989422 0.098456 1.182663
v -2.000982 0.336446 0.070523
v -0.986551 0.545617 1.182663
v -0.664877 -0.048643 -1.502802
v -1.539123 0.107747 -0.799181
v 0.989422 -0.057506 -1.502802
v 0.162273 -0.057506 -1.771559
v 1.130714 0.747521 0.344727
v -0.283838 1.178219 1.182646
v -1.397811 0.999688 -0.364329
v -0.207644 0.691192 -1.502795
v 1.130714 0.682326 -1.067940
v 0.390885 1.372441 0.344725
v 0.902096 1.198452 -0.364329
v -0.441094 1.373284 0.070521
v -0.436254 1.210975 -0.799179
v 0.390885 1.140166 -1.067937
vt 0.012963 0.307198
vt 0.013137 0.177693
vt 0.117460 0.244099
vt 0.678126 0.371927
vt 0.724107 0.414739
vt 0.645476 0.495273
vt 0.108115 0.392739
vt 0.000000 0.415784
vt 1.000000 0.113929
vt 0.966217 0.232675
vt 0.910323 0.101673
vt 0.590109 0.398750
vt 0.286698 0.142782
vt 0.178088 0.060351
vt 0.347059 0.000000
vt 0.247157 0.499012
vt 0.275940 0.372118
vt 0.386250 0.491000
vt 0.086369 0.974413
vt 0.029328 0.861069
vt 0.117724 0.879971
vt 0.799878 0.114092
vt 0.849196 0.232503
vt 0.733911 0.211727
vt 0.656615 0.202022
vt 0.401120 0.229158
vt 0.000000 0.681529
vt 0.039487 0.530233
vt 0.055598 0.699490
vt 0.192363 0.990140
vt 0.724107 0.067914
vt 0.571131 0.083481
vt 0.512550 0.269239
vt 0.433322 0.152041
vt 0.807979 0.627884
vt 0.787316 0.856743
vt 0.708615 0.710078
vt 0.182516 0.757998
vt 0.168854 0.591424
vt 0.280389 0.718660
vt 0.498644 0.838623
vt 0.401120 0.787446
vt 0.496540 0.706426
vt 0.684258 0.726282
vt 0.601750 0.788463
vt 0.604501 0.633710
vt 0.503811 0.578195
vt 0.403800 0.632273
vt 0.242591 0.867071
vt 0.452636 0.506625
vt 0.298720 0.595988
vt 0.181212 0.499012
vt 0.577500 0.506245
vt 0.684258 0.849467
vt 0.519741 0.000000
vt 0.401120 0.300795
vt 0.479610 0.397307
vt 0.680610 0.855058
vt 0.571509 0.921091
vt 0.298720 0.952524
vt 0.912588 0.506245
vt 0.776767 0.535877
vt 0.899881 0.764775
vt 0.912588 1.000000
vt 0.792924 0.981638
vt 0.447619 0.921091
vt 0.795409 0.340254
vt 0.904428 0.332788
vt 0.682097 0.003897
vt 0.724107 0.202336
vt 0.522474 0.506245
vt 0.832906 0.000000
vt 0.987101 0.340254
vt 0.107013 0.499012
vt 0.948878 0.000637
vt 0.057273 0.078280
vn -0.043600 -0.889000 0.455800
vn 0.672700 -0.656400 0.341600
vn -0.405400 -0.855700 0.321600
vn -0.426400 -0.900000 -0.090100
vn 0.015500 -0.967900 -0.251000
vn 0.884000 -0.350600 0.309300
vn -0.130900 -0.711300 0.690600
vn -0.664400 -0.646600 0.374700
vn -0.594600 -0.341900 -0.727700
vn 0.534600 -0.330400 -0.777900
vn 0.861200 -0.267300 0.432300
vn -0.571600 -0.383800 0.725300
vn -0.867100 -0.329200 -0.373900
vn -0.307800 -0.124900 -0.943200
vn 0.802600 -0.125600 -0.583100
vn 0.621700 0.736000 0.267900
vn -0.264800 0.942700 0.202800
vn -0.420700 0.680800 -0.599500
vn 0.046400 0.662300 -0.747800
vn 0.752600 0.623200 -0.212600
vn 0.281100 0.917800 -0.280300
vn 0.479400 0.774600 -0.412500
vn 0.409200 0.661300 -0.628700
vn -0.047300 0.920400 -0.388000
vn -0.133900 0.775800 -0.616600
vn -0.393100 0.673900 -0.625600
vn -0.212400 0.960400 -0.180400
vn -0.287000 0.941400 -0.177300
vn -0.346400 0.937100 -0.042900
vn -0.026100 0.996300 0.082300
vn -0.058500 0.981800 0.180500
vn 0.245900 0.881800 0.402400
vn 0.292700 0.955900 -0.023500
vn 0.621700 0.736100 0.267600
vn 0.760900 0.630000 0.155300
vn 0.889700 0.330400 -0.315100
vn 0.794700 0.187600 -0.577300
vn 0.574600 0.330400 -0.748800
vn -0.021200 0.328500 -0.944300
vn -0.301800 0.186500 -0.935000
vn -0.500900 0.309600 -0.808300
vn -0.639300 0.416400 -0.646400
vn -0.776000 0.371500 -0.509800
vn -0.736900 0.676000 0.008900
vn -0.532500 0.591600 0.605400
vn -0.445700 0.495100 0.745800
vn 0.143300 0.726700 0.671900
vn 0.818500 0.379100 0.431700
vn 0.885500 0.282900 0.368500
vn 0.902600 0.317400 0.290800
vn 0.306600 0.125600 -0.943500
vn 0.303500 -0.187600 -0.934200
vn 0.024400 -0.330500 -0.943500
vn -0.573600 0.271300 -0.772900
vn -0.627900 -0.322200 -0.708500
vn -0.716400 -0.459700 -0.524900
vn -0.710100 0.413500 0.569900
vn -0.607700 -0.467200 0.642200
vn -0.627000 -0.453800 0.633200
vn 0.697100 0.267400 0.665200
vn 0.535700 -0.429300 0.727100
vn 0.633500 -0.507700 0.583800
vn 0.992000 0.126100 -0.000600
vn 0.982100 -0.188100 0.000900
vn 0.905200 -0.331300 -0.266300
vn 0.470500 -0.663900 -0.581300
vn 0.128700 -0.813700 -0.566900
vn -0.048300 -0.703100 -0.709400
vn -0.441600 -0.692400 -0.570600
vn -0.528600 -0.828900 -0.182700
vn -0.541400 -0.822200 -0.175700
vn -0.520800 -0.791000 0.321100
vn -0.474100 -0.799000 0.369800
vn -0.439500 -0.740600 0.508300
vn 0.700000 -0.663300 -0.264400
vn 0.575600 -0.815000 0.066800
vn 0.254400 -0.963900 0.079000
vn -0.167700 -0.776200 0.607800
vn -0.007200 -0.844200 0.536000
vn 0.537500 -0.656900 0.528700
s off
f 1/1/1 14/2/1 13/3/1
f 2/4/2 14/5/2 16/6/2
f 1/1/3 13/3/3 18/7/3
f 1/1/4 18/7/4 20/8/4
f 1/9/5 20/10/5 17/11/5
f 2/4/6 16/6/6 23/12/6
f 3/13/7 15/14/7 25/15/7
f 4/16/8 19/17/8 27/18/8
f 5/19/9 21/20/9 29/21/9
f 6/22/10 22/23/10 31/24/10
f 2/4/11 23/12/11 26/25/11
f 3/13/12 25/15/12 28/26/12
f 4/27/13 27/28/13 30/29/13
f 5/19/14 29/21/14 32/30/14
f 6/22/15 31/24/15 24/31/15
f 7/32/16 33/33/16 38/34/16
f 8/35/17 34/36/17 40/37/17
f 9/38/18 35/39/18 41/40/18
f 10/41/19 36/42/19 42/43/19
f 11/44/20 37/45/20 39/46/20
f 39/46/21 42/43/21 12/47/21
f 39/46/22 37/45/22 42/43/22
f 37/45/23 10/41/23 42/43/23
f 42/43/24 41/48/24 12/47/24
f 42/43/25 36/42/25 41/48/25
f 36/49/26 9/38/26 41/40/26
f 41/48/27 40/50/27 12/47/27
f 41/40/28 35/39/28 40/51/28
f 35/39/29 8/52/29 40/51/29
f 40/50/30 38/53/30 12/47/30
f 40/37/31 34/36/31 38/54/31
f 34/55/32 7/32/32 38/34/32
f 38/53/33 39/46/33 12/47/33
f 38/34/34 33/33/34 39/56/34
f 33/33/35 11/57/35 39/56/35
f 24/58/36 37/45/36 11/44/36
f 24/58/37 31/59/37 37/45/37
f 31/59/38 10/41/38 37/45/38
f 32/30/39 36/49/39 10/60/39
f 32/30/40 29/21/40 36/49/40
f 29/21/41 9/38/41 36/49/41
f 30/29/42 35/39/42 9/38/42
f 30/29/43 27/28/43 35/39/43
f 27/61/44 8/35/44 35/62/44
f 28/63/45 34/36/45 8/35/45
f 28/63/46 25/64/46 34/36/46
f 25/64/47 7/65/47 34/36/47
f 26/25/48 33/33/48 7/32/48
f 26/25/49 23/12/49 33/33/49
f 23/12/50 11/57/50 33/33/50
f 31/59/51 32/66/51 10/41/51
f 31/24/52 22/23/52 32/67/52
f 22/23/53 5/68/53 32/67/53
f 29/21/54 30/29/54 9/38/54
f 29/21/55 21/20/55 30/29/55
f 21/20/56 4/27/56 30/29/56
f 27/61/57 28/63/57 8/35/57
f 27/18/58 19/17/58 28/26/58
f 19/17/59 3/13/59 28/26/59
f 25/69/60 26/25/60 7/32/60
f 25/69/61 15/70/61 26/25/61
f 15/70/62 2/4/62 26/25/62
f 23/12/63 24/71/63 11/57/63
f 23/12/64 16/6/64 24/71/64
f 16/72/65 6/22/65 24/31/65
f 17/11/66 22/23/66 6/22/66
f 17/11/67 20/10/67 22/23/67
f 20/10/68 5/68/68 22/23/68
f 20/10/69 21/73/69 5/68/69
f 20/8/70 18/7/70 21/74/70
f 18/7/71 4/16/71 21/74/71
f 18/7/72 19/17/72 4/16/72
f 18/7/73 13/3/73 19/17/73
f 13/3/74 3/13/74 19/17/74
f 16/72/75 17/11/75 6/22/75
f 16/72/76 14/75/76 17/11/76
f 14/75/77 1/9/77 17/11/77
f 13/3/78 15/14/78 3/13/78
f 13/3/79 14/2/79 15/14/79
f 14/2/80 2/76/80 15/14/80
